<svg width="500" height="320.00000000000006" xmlns="http://www.w3.org/2000/svg">
 <!-- Created with Method Draw - http://github.com/duopixel/Method-Draw/ -->

 <g>
  <title>background</title>
  <rect x="-1" y="-1" width="502" height="322" id="canvas_background" fill="#fff"/>
  <g id="canvasGrid" display="none">
   <rect id="svg_2" width="100%" height="100%" x="0" y="0" stroke-width="0" fill="url(#gridpattern)"/>
  </g>
 </g>
 <g>
  <title>Layer 1</title>
  <rect fill="#fff" stroke-width="10" x="14.263034" y="44.298956" width="469" height="259" id="svg_1" rx="20" stroke="#000"/>
  <ellipse fill="#fff" stroke-width="8" cx="146.763034" cy="179.798956" id="svg_4" rx="75.5" ry="75.5" stroke="#000"/>
  <ellipse fill="#fff" stroke-width="5" cx="147.770176" cy="179.791818" id="svg_7" rx="36" ry="36" stroke="#000"/>
  <path fill="#fff" stroke="#000" stroke-width="1.5" d="m333.992013,124.95484c-2.17115,-0.46893 -2.91983,-3.74485 -1.6254,-5.70749c1.71788,-3.03535 5.3926,-5.08156 8.27178,-3.16633c0.05738,-10.68868 0.02427,-21.37794 0.03304,-32.06688c7.17907,-1.72976 14.37367,-3.37055 21.55546,-5.08526c-0.01555,11.97964 -0.03111,23.95929 -0.04666,35.93893c-1.1251,3.62337 -4.76057,6.13595 -7.92614,5.0124c-1.88463,-0.67377 -2.33644,-3.5791 -1.28701,-5.35924c1.43711,-2.65541 4.11191,-4.47859 6.80095,-3.9812c0.76738,-0.09271 1.89739,1.39108 1.57305,-0.28747c0,-7.20145 0,-14.4029 0,-21.60436c-6.59008,1.58441 -13.1932,3.09356 -19.78633,4.66082c-0.02952,8.6878 0.07319,17.37875 -0.07586,26.06403c-0.45428,2.91563 -2.85463,4.9348 -5.17085,5.52332c-0.76511,0.10888 -1.5503,0.20327 -2.31602,0.05874l-0.00001,0l0,-0.00001zm17.19091,-36.252c3.38601,-0.79584 6.77361,-1.58211 10.15816,-2.38676c0.43073,-2.04938 -1.49692,-0.71845 -2.43963,-0.66842c-5.78142,1.36303 -11.56617,2.70589 -17.3467,4.07422c-0.43073,2.04939 1.49691,0.71846 2.43963,0.66843c2.39593,-0.56396 4.79219,-1.12599 7.18854,-1.68747zm0,-3.58688c3.38601,-0.79583 6.77361,-1.58211 10.15816,-2.38676c0.43073,-2.04938 -1.49692,-0.71845 -2.43963,-0.66842c-5.78142,1.36304 -11.56617,2.7059 -17.3467,4.07423c-0.43073,2.04938 1.49691,0.71845 2.43963,0.66842c2.39593,-0.56396 4.79219,-1.12599 7.18854,-1.68747z" id="svg_20"/>
  <path fill="#fff" stroke="#000" stroke-width="1.5" d="m381.977553,183.6417c-2.22165,-0.59158 -2.98774,-4.72428 -1.6632,-7.20022c1.75784,-3.82921 5.51801,-6.41058 8.46415,-3.99444c0.05872,-13.48418 0.02483,-26.96909 0.03381,-40.45359c7.34604,-2.18216 14.70796,-4.25209 22.05678,-6.41526c-0.01592,15.11278 -0.03183,30.22556 -0.04775,45.33834c-1.15126,4.57101 -4.87129,7.74072 -8.11048,6.32333c-1.92845,-0.84999 -2.39078,-4.51518 -1.31693,-6.76089c1.47052,-3.34991 4.20753,-5.64991 6.95911,-5.02244c0.78522,-0.11696 1.94152,1.7549 1.60963,-0.36265c0,-7.57658 0,-15.15316 0,-22.72974c-6.74335,1.9988 -13.50003,3.90265 -20.2465,5.87981c-0.03112,9.46407 0.07686,18.93276 -0.0779,28.39323c-0.48774,3.65677 -2.92541,6.191 -5.29083,6.93042c-0.78291,0.13736 -1.58636,0.25643 -2.36989,0.0741l0,0zm17.59072,-41.20831c3.46475,-1.00397 6.93115,-1.99588 10.3944,-3.01098c0.44075,-2.58537 -1.53173,-0.90635 -2.49636,-0.84324c-5.91588,1.71952 -11.83517,3.41359 -17.75014,5.13979c-0.44074,2.58538 1.53173,0.90636 2.49637,0.84324c2.45166,-0.71145 4.90365,-1.42047 7.35572,-2.1288l0.00001,0l0,-0.00001zm0,-4.52498c3.46475,-1.00397 6.93115,-1.99588 10.3944,-3.01098c0.44075,-2.58537 -1.53173,-0.90635 -2.49636,-0.84324c-5.91588,1.71952 -11.83517,3.41359 -17.75014,5.13979c-0.44074,2.58538 1.53173,0.90636 2.49637,0.84325c2.45166,-0.71146 4.90365,-1.42048 7.35572,-2.12882l0.00001,0zm0,-4.52498c3.46475,-1.00397 6.93115,-1.99588 10.3944,-3.01098c0.44075,-2.58537 -1.53173,-0.90636 -2.49636,-0.84324c-5.91588,1.71952 -11.83517,3.41359 -17.75014,5.13979c-0.44074,2.58538 1.53173,0.90636 2.49637,0.84324c2.45166,-0.71145 4.90365,-1.42048 7.35572,-2.12881l0.00001,0z" id="svg_21" transform="rotate(30.19353485107422 395.26626586914057,154.65643310546872) "/>
  <path fill="#fff" stroke-width="1.5" d="m321.692823,221.65711c-2.5751,-0.58433 -3.46307,-4.66636 -1.92781,-7.11195c2.03749,-3.78226 6.39587,-6.33199 9.81072,-3.94547c0.06805,-13.36269 0.02879,-26.7261 0.03919,-40.08912c8.51452,-2.11354 17.04829,-4.10909 25.56578,-6.20514c-0.01845,14.9275 -0.03689,29.85501 -0.05534,44.78252c-1.33442,4.51497 -5.64626,7.64583 -9.40078,6.24581c-2.23525,-0.83957 -2.77112,-4.45983 -1.52644,-6.67801c1.70447,-3.30883 4.87691,-5.58064 8.06624,-4.96086c0.91014,-0.11552 2.2504,1.73339 1.86571,-0.35821c-0.03159,-11.807 0.07858,-23.61716 -0.08129,-35.42168c-1.38957,-0.64732 -3.86079,0.84202 -5.63997,0.96251c-5.94966,1.45294 -11.91205,2.82887 -17.84805,4.36673c0.17911,13.08258 0.09559,26.17317 0.06892,39.25851c0.31515,2.98703 -0.99693,5.80076 -2.99195,7.35783c-1.72156,1.5713 -3.84854,2.13773 -5.94493,1.79654l0,-0.00001z" id="svg_22" stroke="#000" transform="rotate(-9.361533164978027 337.0954895019523,193.02903747558616) "/>
  <path fill="#fff" stroke="#000" stroke-width="1.5" d="m380.976633,267.78167c-2.21365,-0.42079 -2.84895,-4.46407 -1.3818,-6.57573c1.60627,-2.99863 4.68036,-4.89132 7.19088,-3.04468c0.10228,-11.4271 0.04441,-22.85668 0.0597,-34.28501c12.67501,-3.59637 25.3673,-7.07393 38.04781,-10.63246c-0.03654,12.63395 0.08915,25.27218 -0.08828,37.90286c-0.30446,3.25824 -2.6495,5.42217 -4.76067,6.09885c-1.85002,0.80423 -4.45501,-0.93822 -4.01683,-4.08008c0.54174,-3.3981 3.01366,-5.84658 5.38989,-6.14434c1.32905,-0.47136 3.18806,2.02972 2.58088,-1.2967c0.01473,-8.62476 -0.01106,-17.2494 -0.02037,-25.87417c-5.90354,1.6448 -11.80588,3.29823 -17.71054,4.93501c-0.03597,10.56428 0.08565,21.13296 -0.08891,31.69386c-0.35644,3.39798 -2.87611,5.64452 -5.13239,6.0774c-2.23384,0.85717 -4.57871,-2.44092 -3.31669,-5.51088c1.394,-3.68311 4.94844,-6.19107 7.71224,-4.05198c0.02102,-9.18427 0.08884,-18.37306 -0.03207,-27.55553c-1.49477,-0.46064 -3.79276,0.98077 -5.56183,1.18812c-4.05599,1.13055 -8.11095,2.26799 -12.16646,3.40215c-0.0554,10.79681 0.01966,21.59891 -0.16843,32.39132c-0.95494,3.56006 -3.89784,5.88133 -6.53613,5.36199l0,0l0,0zm15.69912,-42.76076c2.91862,-0.81655 5.83716,-1.63307 8.75578,-2.44959c0.49159,-2.91564 -2.21728,-0.39478 -3.30237,-0.55727c-4.8183,1.37469 -9.63572,2.75549 -14.45609,4.1154c-0.27923,2.98564 2.90588,-0.08094 4.09213,0.25972c1.63717,-0.45409 3.27394,-0.91044 4.91055,-1.36826l0,0zm18.46672,-5.21244c2.92889,-0.83505 5.87265,-1.59532 8.79214,-2.48003c0.4374,-2.90246 -2.81433,0.09367 -3.9529,-0.24003c-4.54146,1.25863 -9.10051,2.42281 -13.6321,3.73347c-0.48491,3.07094 2.82373,0.01018 4.00878,0.31846c1.59459,-0.44459 3.18933,-0.88846 4.78408,-1.33187l0,0z" id="svg_23"/>
  <rect fill="#fff" stroke-width="5" x="367.763915" y="15.11245" width="65.957957" height="25.532111" id="svg_27" stroke="#000"/>
 </g>
</svg>