<svg width="800" height="320.00000000000006" xmlns="http://www.w3.org/2000/svg">
 <!-- Created with Method Draw - http://github.com/duopixel/Method-Draw/ -->

 <g>
  <title>background</title>
  <rect fill="#fff" id="canvas_background" height="322" width="802" y="-1" x="-1"/>
  <g display="none" overflow="visible" y="0" x="0" height="100%" width="100%" id="canvasGrid">
   <rect fill="url(#gridpattern)" stroke-width="0" y="0" x="0" height="100%" width="100%"/>
  </g>
 </g>
 <g>
  <title>Layer 1</title>
  <rect stroke="#000" rx="20" id="svg_1" height="259" width="469" y="44.298956" x="304.467671" stroke-width="10" fill="#fff"/>
  <ellipse stroke="#000" ry="75.5" rx="75.5" id="svg_4" cy="179.798956" cx="436.967671" stroke-width="8" fill="#fff"/>
  <ellipse stroke="#000" ry="36" rx="36" id="svg_7" cy="179.791818" cx="437.974813" stroke-width="5" fill="#fff"/>
  <path id="svg_20" d="m624.196654,124.954844c-2.171158,-0.468937 -2.919837,-3.744858 -1.6254,-5.707493c1.717881,-3.03535 5.392594,-5.081557 8.271777,-3.166328c0.057383,-10.68868 0.024264,-21.377943 0.033041,-32.066881c7.179072,-1.729761 14.373667,-3.370555 21.555458,-5.085266c-0.015552,11.979646 -0.031106,23.959292 -0.046658,35.938937c-1.125102,3.623363 -4.760575,6.135944 -7.926142,5.012398c-1.884627,-0.673768 -2.336439,-3.579104 -1.287007,-5.359241c1.437104,-2.655414 4.111905,-4.478588 6.800948,-3.9812c0.767377,-0.092712 1.897393,1.391081 1.573048,-0.287468c0,-7.201454 0,-14.402905 0,-21.604357c-6.590082,1.584407 -13.193198,3.093557 -19.786329,4.66082c-0.029523,8.687798 0.073187,17.378744 -0.075857,26.064021c-0.454283,2.915634 -2.854637,4.934809 -5.170853,5.52332c-0.765113,0.108881 -1.550301,0.20327 -2.316024,0.05874l-0.000001,0zm17.190903,-36.252008c3.386009,-0.795831 6.773614,-1.582103 10.15816,-2.386753c0.430729,-2.049384 -1.496917,-0.718455 -2.439626,-0.668425c-5.781418,1.363036 -11.566173,2.705894 -17.346703,4.074227c-0.43073,2.049384 1.496916,0.718455 2.439628,0.668425c2.395936,-0.563961 4.792194,-1.12599 7.18854,-1.687474zm0,-3.586877c3.386009,-0.795831 6.773614,-1.582105 10.15816,-2.386754c0.430729,-2.049383 -1.496917,-0.718455 -2.439626,-0.668423c-5.781418,1.363036 -11.566173,2.705895 -17.346703,4.074227c-0.43073,2.049384 1.496916,0.718456 2.439628,0.668425c2.395936,-0.563959 4.792194,-1.125992 7.18854,-1.687474z" stroke-width="1.5" stroke="#000" fill="#fff"/>
  <path transform="rotate(30.19353485107422 685.4708862304688,154.65643310546875) " id="svg_21" d="m672.182193,183.6417c-2.221652,-0.591582 -2.987744,-4.724281 -1.663202,-7.200219c1.757834,-3.829209 5.518011,-6.410583 8.464153,-3.994443c0.058717,-13.484177 0.024829,-26.969089 0.033809,-40.453593c7.346035,-2.182157 14.707956,-4.252084 22.056773,-6.415255c-0.015914,15.112779 -0.031829,30.225559 -0.047743,45.338336c-1.151268,4.57101 -4.871291,7.740727 -8.110482,6.323331c-1.928455,-0.849985 -2.390778,-4.515176 -1.316935,-6.760887c1.470524,-3.349905 4.207534,-5.649909 6.959115,-5.022442c0.78522,-0.116953 1.941521,1.754907 1.609633,-0.362646c0,-7.576581 0,-15.153158 0,-22.729737c-6.74335,1.998791 -13.500033,3.902641 -20.2465,5.879801c-0.031124,9.464076 0.076853,18.932764 -0.077902,28.393231c-0.487738,3.65677 -2.925411,6.191001 -5.290831,6.930421c-0.782907,0.137363 -1.586357,0.256433 -2.36989,0.074103l0.000001,-0.000002zm17.590712,-41.208306c3.46476,-1.003971 6.93115,-1.995885 10.394409,-3.010981c0.440746,-2.585376 -1.53173,-0.906358 -2.496367,-0.843244c-5.915873,1.719521 -11.835164,3.413588 -17.750134,5.139794c-0.440746,2.585374 1.53173,0.906358 2.496367,0.84324c2.45166,-0.711456 4.903646,-1.420478 7.355724,-2.128808l0.000001,0zm0,-4.524982c3.46476,-1.003971 6.93115,-1.995884 10.394409,-3.010979c0.440746,-2.585376 -1.53173,-0.906358 -2.496367,-0.843244c-5.915873,1.719521 -11.835164,3.413588 -17.750134,5.139792c-0.440746,2.585376 1.53173,0.906358 2.496367,0.843244c2.45166,-0.711458 4.903646,-1.42048 7.355724,-2.128812l0.000001,0zm0,-4.524982c3.46476,-1.003971 6.93115,-1.995885 10.394409,-3.010981c0.440746,-2.585374 -1.53173,-0.906358 -2.496367,-0.843242c-5.915873,1.719521 -11.835164,3.41359 -17.750134,5.139792c-0.440746,2.585376 1.53173,0.90636 2.496367,0.843244c2.45166,-0.711456 4.903646,-1.42048 7.355724,-2.12881l0.000001,-0.000002z" stroke-width="1.5" stroke="#000" fill="#fff"/>
  <path transform="rotate(-9.361533164978027 627.3001098632809,193.02903747558585) " stroke="#000" id="svg_22" d="m611.897457,221.65711c-2.575095,-0.584329 -3.463065,-4.666364 -1.927802,-7.111949c2.037488,-3.782264 6.39587,-6.331988 9.810714,-3.945474c0.068049,-13.362683 0.028788,-26.7261 0.03919,-40.089112c8.514519,-2.113544 17.048289,-4.109099 25.565784,-6.205147c-0.01845,14.927506 -0.036893,29.855012 -0.055339,44.782519c-1.334428,4.514973 -5.646264,7.645831 -9.40078,6.24581c-2.235253,-0.839564 -2.771126,-4.459822 -1.526445,-6.678003c1.704469,-3.308838 4.876911,-5.580645 8.066238,-4.960864c0.910146,-0.115525 2.250404,1.733387 1.865713,-0.358206c-0.031594,-11.807008 0.078578,-23.617163 -0.081294,-35.421685c-1.389566,-0.647315 -3.860783,0.842019 -5.639964,0.962515c-5.949665,1.452931 -11.91205,2.828869 -17.848051,4.366729c0.179106,13.082578 0.095588,26.173165 0.068923,39.258509c0.31515,2.987024 -0.99693,5.800755 -2.991958,7.357828c-1.72156,1.571303 -3.848541,2.137734 -5.944927,1.796535l-0.000002,-0.000006z" stroke-width="1.5" fill="#fff"/>
  <path id="svg_23" d="m671.181269,267.781672c-2.213644,-0.420791 -2.84895,-4.464077 -1.381796,-6.575737c1.60627,-2.998629 4.680358,-4.891312 7.190876,-3.044679c0.102283,-11.427099 0.044415,-22.856679 0.059699,-34.285003c12.675014,-3.596369 25.3673,-7.073935 38.04781,-10.632459c-0.036536,12.633941 0.089147,25.272179 -0.088278,37.902859c-0.304461,3.258237 -2.649498,5.422164 -4.760674,6.098847c-1.850012,0.804232 -4.455011,-0.938218 -4.016826,-4.080082c0.541744,-3.398093 3.013655,-5.846573 5.389889,-6.144334c1.329055,-0.471366 3.188056,2.029713 2.580885,-1.296704c0.014727,-8.624757 -0.01106,-17.249398 -0.020374,-25.874166c-5.903539,1.644799 -11.805885,3.298231 -17.710539,4.935007c-0.035976,10.56428 0.085648,21.132964 -0.08891,31.693856c-0.356437,3.397979 -2.87611,5.644524 -5.132395,6.0774c-2.233835,0.857171 -4.57871,-2.440916 -3.316684,-5.510879c1.393998,-3.683104 4.948441,-6.191064 7.712241,-4.051978c0.021014,-9.184275 0.088833,-18.373062 -0.032078,-27.555532c-1.494767,-0.460643 -3.79276,0.980767 -5.561823,1.188118c-4.055992,1.130555 -8.110949,2.267992 -12.166463,3.402158c-0.0554,10.796803 0.019661,21.598908 -0.168429,32.391311c-0.954944,3.560065 -3.897838,5.881332 -6.536128,5.361994l0,0l-0.000003,0zm15.699122,-42.760766c2.918617,-0.81655 5.837155,-1.633062 8.755774,-2.449583c0.491594,-2.915646 -2.21728,-0.394781 -3.302362,-0.557277c-4.8183,1.37469 -9.635725,2.755489 -14.456095,4.115399c-0.27923,2.985649 2.905881,-0.080931 4.092128,0.259727c1.637171,-0.454096 3.273942,-0.910447 4.910554,-1.368266l0.000002,0zm18.466718,-5.212441c2.928887,-0.835046 5.872655,-1.595313 8.792144,-2.480026c0.437395,-2.90246 -2.814338,0.093674 -3.952906,-0.240029c-4.54146,1.258632 -9.100512,2.42281 -13.632102,3.733467c-0.48491,3.070948 2.823737,0.01018 4.008789,0.318465c1.594587,-0.444591 3.189329,-0.888461 4.784074,-1.331876l0.000002,0z" stroke-width="1.5" stroke="#000" fill="#fff"/>
  <rect stroke="#000" id="svg_27" height="25.532111" width="65.957957" y="15.11245" x="657.968552" stroke-width="5" fill="#fff"/>
  <text stroke="#fff" transform="matrix(3.6250785749705585,0,0,3.7932106535265793,-1358.5361951636899,-286.0560802032108) " xml:space="preserve" text-anchor="start" font-family="Helvetica, Arial, sans-serif" font-size="24" id="svg_30" y="106.309773" x="378.42153" fill-opacity="null" stroke-opacity="null" stroke-width="0" fill="#000000">多媒体</text>
  <text font-weight="bold" stroke="#fff" transform="matrix(2.03238582611084,0,0,2.2187225818634033,-622.4157359451056,-201.8890127018094) " xml:space="preserve" text-anchor="start" font-family="Helvetica, Arial, sans-serif" font-size="24" id="svg_31" y="175.583699" x="366.188488" fill-opacity="null" stroke-opacity="null" stroke-width="0" fill="#000000">与</text>
  <text stroke="#fff" transform="matrix(3.6250785749705585,0,0,3.7932106535265793,-1358.5361951636899,-286.0560802032108) " xml:space="preserve" text-anchor="start" font-family="Helvetica, Arial, sans-serif" font-size="24" id="svg_33" y="149.666926" x="391.872364" fill-opacity="null" stroke-opacity="null" stroke-width="0" fill="#000000">图形</text>
 </g>
</svg>