<svg xmlns="http://www.w3.org/2000/svg" id="canvas" viewBox="330.945 352.566 1152.708 298.655"><path d="M 336.63,356.61 C 334.91 357.84, 334.30 359.32, 334.00 362.37 C 333.71 365.41, 334.63 367.27, 335.16 371.83 C 335.69 376.40, 336.18 379.44, 336.66 385.21 C 337.15 390.97, 337.31 394.10, 337.60 400.66 C 337.88 407.21, 337.97 410.83, 338.08 417.98 C 338.19 425.13, 338.15 428.97, 338.16 436.41 C 338.17 443.85, 338.13 447.74, 338.13 455.19 C 338.14 462.63, 338.16 466.51, 338.20 473.63 C 338.24 480.75, 338.32 484.36, 338.35 490.79 C 338.38 497.22, 338.47 500.43, 338.35 505.80 C 338.23 511.17, 337.55 513.82, 337.76 517.64 C 337.96 521.46, 337.85 523.15, 339.37 524.91 C 340.90 526.67, 342.94 526.96, 345.38 526.44 C 347.82 525.92, 350.33 524.94, 351.56 522.30 C 352.78 519.66, 351.58 517.43, 351.51 513.24 C 351.44 509.05, 350.97 506.32, 351.21 501.35 C 351.44 496.38, 351.70 493.55, 352.68 488.37 C 353.65 483.20, 354.34 480.54, 356.08 475.47 C 357.82 470.39, 358.90 467.78, 361.39 463.00 C 363.87 458.21, 365.33 455.80, 368.51 451.53 C 371.69 447.26, 373.56 445.16, 377.30 441.64 C 381.05 438.13, 383.19 436.45, 387.24 433.96 C 391.29 431.47, 393.48 430.45, 397.56 429.17 C 401.64 427.90, 403.77 427.61, 407.64 427.58 C 411.50 427.54, 413.37 427.83, 416.89 429.00 C 420.42 430.17, 422.07 431.02, 425.27 433.41 C 428.46 435.80, 430.05 437.35, 432.85 440.97 C 435.65 444.58, 437.00 446.78, 439.28 451.48 C 441.56 456.17, 442.54 458.95, 444.25 464.43 C 445.97 469.90, 446.61 473.00, 447.86 478.86 C 449.11 484.73, 449.56 487.90, 450.50 493.74 C 451.44 499.59, 451.71 502.64, 452.55 508.07 C 453.38 513.51, 453.84 516.41, 454.67 520.92 C 455.49 525.43, 455.45 527.69, 456.67 530.62 C 457.89 533.54, 459.10 534.81, 460.77 535.55 C 462.45 536.28, 464.01 535.77, 465.04 534.30 C 466.07 532.83, 466.27 531.25, 465.92 528.18 C 465.56 525.11, 464.44 523.26, 463.25 518.96 C 462.07 514.66, 461.15 511.97, 460.00 506.69 C 458.84 501.41, 458.53 498.41, 457.49 492.56 C 456.44 486.70, 456.01 483.46, 454.76 477.42 C 453.52 471.37, 452.94 468.17, 451.26 462.32 C 449.57 456.48, 448.69 453.47, 446.35 448.19 C 444.00 442.92, 442.68 440.32, 439.53 435.97 C 436.38 431.62, 434.56 429.53, 430.59 426.44 C 426.61 423.36, 424.29 422.06, 419.66 420.55 C 415.03 419.05, 412.39 418.75, 407.45 418.91 C 402.51 419.06, 399.85 419.64, 394.97 421.33 C 390.09 423.01, 387.61 424.36, 383.04 427.33 C 378.46 430.30, 376.19 432.22, 372.09 436.18 C 368.00 440.14, 366.02 442.45, 362.57 447.13 C 359.12 451.81, 357.58 454.42, 354.85 459.57 C 352.13 464.73, 350.98 467.51, 348.95 472.90 C 346.92 478.29, 346.17 481.10, 344.69 486.52 C 343.21 491.95, 342.73 494.90, 341.56 500.01 C 340.40 505.13, 339.70 507.91, 338.87 512.09 C 338.04 516.27, 336.70 518.32, 337.41 520.92 C 338.13 523.53, 340.48 524.58, 342.44 525.14 C 344.40 525.70, 346.20 525.35, 347.21 523.72 C 348.22 522.09, 347.79 520.64, 347.49 516.99 C 347.20 513.34, 346.29 510.76, 345.73 505.49 C 345.16 500.21, 345.01 497.00, 344.67 490.61 C 344.33 484.22, 344.20 480.63, 344.03 473.54 C 343.86 466.46, 343.82 462.60, 343.81 455.18 C 343.79 447.76, 343.85 443.88, 343.93 436.44 C 344.01 429.00, 344.09 425.14, 344.20 417.97 C 344.31 410.80, 344.32 407.19, 344.47 400.59 C 344.62 393.99, 344.78 390.82, 344.96 384.99 C 345.14 379.16, 345.21 376.08, 345.39 371.45 C 345.58 366.82, 346.45 364.88, 345.88 361.84 C 345.32 358.80, 344.42 357.29, 342.57 356.25 C 340.72 355.20, 338.34 355.39, 336.63 356.61" style="stroke: black; fill: black;"/><path d="M 562.08,452.25 C 563.40 450.23, 563.43 447.95, 562.65 445.05 C 561.87 442.14, 560.65 440.52, 558.17 437.71 C 555.69 434.91, 553.77 433.06, 550.23 431.02 C 546.69 428.99, 544.61 428.43, 540.49 427.53 C 536.38 426.64, 534.17 426.45, 529.65 426.56 C 525.14 426.67, 522.67 426.91, 517.92 428.09 C 513.16 429.27, 510.64 430.16, 505.88 432.44 C 501.12 434.72, 498.62 436.16, 494.13 439.47 C 489.63 442.78, 487.34 444.77, 483.42 448.98 C 479.49 453.20, 477.50 455.65, 474.51 460.55 C 471.52 465.45, 470.18 468.22, 468.48 473.48 C 466.78 478.75, 466.22 481.62, 466.01 486.88 C 465.80 492.14, 466.02 494.92, 467.45 499.78 C 468.87 504.64, 470.12 507.15, 473.12 511.19 C 476.12 515.23, 478.19 517.19, 482.45 519.98 C 486.72 522.77, 489.37 523.77, 494.45 525.15 C 499.52 526.54, 502.41 526.88, 507.83 526.90 C 513.24 526.92, 516.14 526.60, 521.52 525.25 C 526.90 523.91, 529.74 522.69, 534.73 520.16 C 539.72 517.62, 542.16 516.03, 546.47 512.58 C 550.77 509.12, 552.79 507.04, 556.24 502.89 C 559.69 498.73, 561.26 496.39, 563.71 491.80 C 566.16 487.22, 567.05 484.68, 568.50 479.95 C 569.94 475.22, 570.33 472.74, 570.96 468.16 C 571.59 463.57, 571.74 461.14, 571.64 457.03 C 571.55 452.91, 572.09 450.13, 570.48 447.58 C 568.88 445.03, 566.36 444.23, 563.60 444.28 C 560.85 444.34, 558.22 445.38, 556.73 447.83 C 555.24 450.28, 555.61 452.49, 556.16 456.52 C 556.71 460.55, 558.02 463.12, 559.49 467.98 C 560.95 472.83, 561.81 475.64, 563.48 480.80 C 565.15 485.96, 566.02 488.71, 567.84 493.79 C 569.66 498.87, 570.52 501.44, 572.57 506.21 C 574.62 510.98, 575.72 513.55, 578.09 517.63 C 580.46 521.71, 581.89 524.13, 584.41 526.62 C 586.93 529.10, 588.70 530.02, 590.69 530.06 C 592.67 530.10, 594.08 528.73, 594.35 526.83 C 594.62 524.93, 593.74 523.38, 592.05 520.56 C 590.36 517.74, 588.31 516.29, 585.92 512.74 C 583.52 509.19, 582.16 507.12, 580.07 502.80 C 577.99 498.47, 577.14 495.99, 575.51 491.13 C 573.87 486.27, 573.02 483.56, 571.90 478.50 C 570.77 473.44, 570.40 470.58, 569.88 465.83 C 569.35 461.07, 569.75 458.29, 569.27 454.74 C 568.79 451.18, 568.88 449.61, 567.47 448.05 C 566.06 446.48, 564.04 446.38, 562.24 446.92 C 560.43 447.46, 558.80 448.52, 558.45 450.76 C 558.11 452.99, 559.90 454.78, 560.52 458.10 C 561.15 461.43, 561.67 463.48, 561.59 467.37 C 561.51 471.27, 561.17 473.47, 560.13 477.59 C 559.08 481.71, 558.37 483.95, 556.35 488.00 C 554.34 492.04, 553.01 494.13, 550.04 497.81 C 547.07 501.50, 545.28 503.36, 541.50 506.42 C 537.73 509.47, 535.54 510.89, 531.16 513.08 C 526.78 515.28, 524.25 516.31, 519.60 517.41 C 514.96 518.51, 512.51 518.69, 507.94 518.58 C 503.37 518.47, 500.89 518.06, 496.76 516.87 C 492.62 515.69, 490.59 514.84, 487.26 512.65 C 483.93 510.47, 482.44 509.01, 480.11 505.94 C 477.78 502.87, 476.78 501.08, 475.59 497.32 C 474.41 493.55, 474.10 491.41, 474.18 487.12 C 474.26 482.83, 474.61 480.36, 476.00 475.86 C 477.39 471.35, 478.50 468.88, 481.12 464.58 C 483.74 460.28, 485.55 458.05, 489.10 454.35 C 492.65 450.66, 494.78 448.89, 498.85 446.11 C 502.92 443.32, 505.23 442.15, 509.44 440.43 C 513.65 438.70, 515.89 438.16, 519.90 437.49 C 523.91 436.81, 525.97 436.80, 529.49 437.04 C 533.00 437.28, 534.77 437.72, 537.47 438.68 C 540.17 439.63, 541.07 440.17, 542.99 441.80 C 544.92 443.43, 545.62 444.81, 547.11 446.83 C 548.60 448.85, 548.66 450.23, 550.44 451.90 C 552.22 453.56, 553.70 455.08, 556.03 455.15 C 558.35 455.22, 560.75 454.27, 562.08 452.25" style="stroke: black; fill: black;"/><path d="M 614.95,448.33 C 613.16 449.41, 612.46 450.62, 611.93 453.03 C 611.41 455.45, 611.83 456.92, 612.33 460.41 C 612.84 463.90, 613.66 466.28, 614.46 470.49 C 615.26 474.70, 615.69 477.04, 616.35 481.45 C 617.01 485.86, 617.33 488.22, 617.75 492.54 C 618.18 496.86, 618.40 499.16, 618.49 503.06 C 618.57 506.96, 617.91 509.03, 618.18 512.02 C 618.46 515.02, 618.55 516.51, 619.84 518.03 C 621.14 519.54, 622.68 519.86, 624.66 519.62 C 626.64 519.38, 628.54 518.65, 629.77 516.82 C 631.00 515.00, 631.24 513.54, 630.81 510.51 C 630.37 507.48, 628.68 505.49, 627.59 501.66 C 626.50 497.82, 625.88 495.52, 625.34 491.34 C 624.80 487.15, 624.68 484.90, 624.89 480.73 C 625.11 476.55, 625.40 474.43, 626.41 470.47 C 627.42 466.51, 628.11 464.55, 629.93 460.93 C 631.75 457.31, 632.87 455.47, 635.52 452.35 C 638.17 449.23, 639.73 447.76, 643.17 445.34 C 646.61 442.91, 648.63 441.80, 652.72 440.23 C 656.81 438.66, 659.12 438.03, 663.64 437.49 C 668.16 436.96, 670.71 436.96, 675.31 437.55 C 679.92 438.13, 682.34 438.71, 686.66 440.43 C 690.99 442.16, 693.12 443.34, 696.93 446.17 C 700.75 448.99, 702.62 450.76, 705.75 454.56 C 708.88 458.37, 710.22 460.62, 712.59 465.21 C 714.96 469.80, 715.92 472.42, 717.58 477.51 C 719.24 482.61, 719.80 485.44, 720.87 490.68 C 721.94 495.93, 722.10 498.73, 722.92 503.72 C 723.73 508.72, 723.94 511.49, 724.94 515.67 C 725.94 519.85, 726.17 523.05, 727.91 524.62 C 729.66 526.19, 732.63 525.62, 733.69 523.53 C 734.74 521.44, 733.74 518.40, 733.19 514.16 C 732.65 509.91, 731.92 507.31, 730.95 502.29 C 729.99 497.28, 729.60 494.49, 728.35 489.06 C 727.11 483.64, 726.55 480.63, 724.75 475.17 C 722.95 469.70, 721.96 466.84, 719.36 461.75 C 716.76 456.65, 715.29 454.05, 711.75 449.67 C 708.21 445.29, 706.07 443.19, 701.66 439.85 C 697.25 436.52, 694.74 435.08, 689.68 432.99 C 684.63 430.91, 681.80 430.19, 676.41 429.43 C 671.02 428.67, 668.05 428.63, 662.72 429.18 C 657.38 429.74, 654.64 430.42, 649.73 432.21 C 644.82 433.99, 642.38 435.25, 638.18 438.11 C 633.98 440.97, 631.99 442.76, 628.73 446.50 C 625.47 450.25, 624.10 452.49, 621.86 456.81 C 619.63 461.14, 618.84 463.49, 617.57 468.12 C 616.29 472.75, 615.99 475.21, 615.48 479.96 C 614.97 484.71, 615.09 487.20, 615.00 491.87 C 614.92 496.54, 615.08 499.01, 615.05 503.31 C 615.03 507.60, 614.20 510.08, 614.89 513.35 C 615.58 516.61, 616.43 518.11, 618.49 519.63 C 620.55 521.15, 622.82 521.36, 625.20 520.96 C 627.57 520.56, 629.20 519.66, 630.37 517.65 C 631.53 515.64, 631.31 514.03, 631.04 510.89 C 630.77 507.76, 629.73 505.87, 629.03 501.99 C 628.32 498.10, 628.04 495.80, 627.51 491.47 C 626.99 487.14, 626.73 484.78, 626.42 480.34 C 626.10 475.90, 626.04 473.52, 625.94 469.26 C 625.83 465.00, 626.09 462.54, 625.89 459.03 C 625.68 455.52, 625.91 453.98, 624.90 451.71 C 623.90 449.43, 622.86 448.32, 620.87 447.64 C 618.88 446.97, 616.74 447.26, 614.95 448.33" style="stroke: black; fill: black;"/><path d="M 824.54,462.24 C 825.75 460.22, 825.66 458.08, 824.79 455.36 C 823.93 452.64, 822.76 451.06, 820.22 448.64 C 817.68 446.22, 815.63 444.87, 812.08 443.25 C 808.54 441.64, 806.50 441.24, 802.49 440.56 C 798.47 439.89, 796.36 439.80, 792.01 439.87 C 787.66 439.95, 785.28 440.05, 780.74 440.94 C 776.20 441.83, 773.75 442.53, 769.30 444.31 C 764.85 446.10, 762.50 447.25, 758.47 449.87 C 754.45 452.49, 752.41 454.02, 749.15 457.39 C 745.90 460.76, 744.31 462.73, 742.18 466.71 C 740.06 470.70, 739.16 473.01, 738.53 477.31 C 737.91 481.61, 737.95 484.08, 739.06 488.22 C 740.17 492.35, 741.31 494.60, 744.07 497.99 C 746.83 501.37, 748.87 502.88, 752.85 505.15 C 756.84 507.41, 759.30 508.24, 764.00 509.31 C 768.70 510.38, 771.34 510.55, 776.35 510.49 C 781.37 510.44, 784.05 510.02, 789.06 509.03 C 794.07 508.05, 796.69 507.30, 801.39 505.55 C 806.09 503.80, 808.45 502.65, 812.56 500.29 C 816.66 497.92, 818.63 496.56, 821.91 493.71 C 825.20 490.87, 826.63 489.25, 828.99 486.06 C 831.34 482.87, 832.43 481.11, 833.67 477.76 C 834.91 474.41, 835.57 472.32, 835.18 469.31 C 834.79 466.30, 833.94 464.17, 831.72 462.72 C 829.51 461.27, 826.77 461.13, 824.12 462.05 C 821.46 462.97, 819.17 464.40, 818.45 467.32 C 817.72 470.24, 819.18 472.36, 820.50 476.63 C 821.82 480.90, 823.11 483.43, 825.07 488.67 C 827.03 493.91, 828.07 496.91, 830.30 502.82 C 832.52 508.74, 833.81 511.93, 836.20 518.23 C 838.58 524.54, 839.89 527.77, 842.22 534.36 C 844.55 540.95, 845.76 544.45, 847.84 551.18 C 849.92 557.90, 851.03 561.40, 852.60 567.98 C 854.16 574.56, 854.89 577.91, 855.66 584.07 C 856.43 590.24, 856.63 593.32, 856.46 598.82 C 856.29 604.32, 855.96 606.94, 854.82 611.57 C 853.68 616.21, 852.80 618.32, 850.78 621.99 C 848.76 625.66, 847.54 627.20, 844.72 629.93 C 841.90 632.67, 840.33 633.81, 836.69 635.68 C 833.05 637.54, 831.00 638.29, 826.50 639.26 C 822.00 640.23, 819.48 640.54, 814.19 640.50 C 808.90 640.46, 805.89 640.12, 800.06 639.06 C 794.22 638.00, 791.00 637.19, 785.01 635.19 C 779.03 633.19, 775.86 631.91, 770.13 629.05 C 764.40 626.19, 761.46 624.48, 756.37 620.89 C 751.28 617.29, 748.80 615.30, 744.70 611.08 C 740.59 606.85, 738.71 604.53, 735.86 599.76 C 733.01 594.98, 731.87 592.49, 730.43 587.21 C 728.98 581.93, 728.59 579.12, 728.62 573.36 C 728.66 567.60, 729.58 564.13, 730.61 558.40 C 731.64 552.67, 732.77 549.40, 733.77 544.70 C 734.76 540.00, 736.27 537.18, 735.57 534.91 C 734.88 532.65, 732.11 531.80, 730.31 533.39 C 728.50 534.99, 727.94 538.13, 726.55 542.88 C 725.16 547.64, 724.32 551.08, 723.36 557.19 C 722.40 563.29, 721.65 567.04, 721.77 573.41 C 721.89 579.77, 722.28 583.06, 723.96 589.01 C 725.63 594.97, 726.95 597.86, 730.16 603.18 C 733.38 608.51, 735.54 611.04, 740.04 615.62 C 744.55 620.21, 747.24 622.28, 752.69 626.11 C 758.13 629.94, 761.21 631.71, 767.24 634.78 C 773.28 637.85, 776.56 639.22, 782.85 641.46 C 789.14 643.69, 792.46 644.64, 798.69 645.97 C 804.91 647.30, 808.11 647.84, 813.99 648.10 C 819.86 648.36, 822.76 648.25, 828.08 647.29 C 833.39 646.32, 836.02 645.56, 840.54 643.30 C 845.07 641.03, 847.23 639.47, 850.70 635.96 C 854.18 632.44, 855.65 630.27, 857.92 625.71 C 860.19 621.15, 860.99 618.53, 862.05 613.17 C 863.12 607.81, 863.27 604.89, 863.24 598.90 C 863.21 592.91, 862.86 589.69, 861.91 583.22 C 860.95 576.75, 860.14 573.32, 858.46 566.56 C 856.79 559.80, 855.63 556.26, 853.53 549.42 C 851.43 542.59, 850.21 539.05, 847.97 532.38 C 845.72 525.70, 844.45 522.42, 842.31 516.05 C 840.18 509.68, 838.98 506.48, 837.29 500.52 C 835.60 494.56, 834.80 491.50, 833.87 486.25 C 832.95 481.01, 832.93 478.22, 832.69 474.29 C 832.44 470.36, 833.60 468.59, 832.63 466.61 C 831.66 464.62, 829.84 464.48, 827.84 464.35 C 825.83 464.22, 823.93 464.92, 822.60 465.96 C 821.27 467.00, 821.50 467.95, 821.20 469.58 C 820.90 471.20, 821.45 471.99, 821.10 474.09 C 820.75 476.18, 820.67 477.58, 819.45 480.04 C 818.24 482.50, 817.36 483.94, 815.01 486.40 C 812.67 488.85, 811.09 490.17, 807.73 492.33 C 804.37 494.49, 802.28 495.61, 798.21 497.19 C 794.14 498.78, 791.75 499.45, 787.38 500.25 C 783.02 501.05, 780.60 501.31, 776.40 501.21 C 772.21 501.10, 770.04 500.75, 766.40 499.73 C 762.76 498.71, 760.96 497.82, 758.19 496.10 C 755.43 494.38, 754.28 493.28, 752.57 491.13 C 750.86 488.98, 750.34 487.82, 749.64 485.33 C 748.94 482.85, 748.77 481.50, 749.08 478.70 C 749.39 475.90, 749.77 474.27, 751.19 471.34 C 752.62 468.42, 753.71 466.77, 756.20 464.08 C 758.70 461.39, 760.35 460.03, 763.67 457.89 C 766.98 455.75, 769.03 454.75, 772.78 453.39 C 776.54 452.02, 778.64 451.57, 782.43 451.07 C 786.23 450.56, 788.29 450.60, 791.76 450.86 C 795.23 451.11, 797.06 451.46, 799.77 452.34 C 802.48 453.21, 803.37 453.75, 805.30 455.23 C 807.24 456.72, 807.81 458.15, 809.44 459.77 C 811.08 461.39, 811.62 462.21, 813.48 463.34 C 815.34 464.48, 816.53 465.69, 818.75 465.47 C 820.96 465.25, 823.33 464.26, 824.54 462.24" style="stroke: black; fill: black;"/><path d="M 870.45,376.80 C 868.48 377.82, 867.46 379.40, 866.84 382.08 C 866.21 384.77, 866.95 386.41, 867.30 390.24 C 867.66 394.07, 868.04 396.53, 868.61 401.23 C 869.18 405.92, 869.55 408.47, 870.16 413.72 C 870.78 418.97, 871.03 421.76, 871.69 427.49 C 872.34 433.22, 872.65 436.30, 873.44 442.36 C 874.24 448.41, 874.67 451.65, 875.65 457.76 C 876.63 463.86, 877.14 466.96, 878.32 472.89 C 879.51 478.82, 880.17 481.84, 881.58 487.40 C 883.00 492.96, 883.73 495.71, 885.39 500.69 C 887.06 505.66, 887.98 508.03, 889.91 512.27 C 891.84 516.50, 892.86 518.46, 895.05 521.86 C 897.25 525.26, 898.10 527.04, 900.89 529.26 C 903.67 531.47, 905.56 532.18, 908.97 532.94 C 912.39 533.69, 914.54 533.81, 917.96 533.03 C 921.38 532.25, 923.22 531.29, 926.09 529.06 C 928.96 526.82, 929.95 525.14, 932.31 521.85 C 934.68 518.56, 935.70 516.56, 937.90 512.62 C 940.11 508.69, 941.20 506.50, 943.35 502.19 C 945.50 497.87, 946.61 495.53, 948.65 491.05 C 950.69 486.57, 951.66 484.08, 953.54 479.78 C 955.41 475.48, 956.27 473.26, 958.04 469.55 C 959.80 465.84, 961.88 463.93, 962.36 461.23 C 962.83 458.54, 961.75 457.05, 960.42 456.07 C 959.09 455.09, 957.18 455.19, 955.71 456.35 C 954.24 457.51, 953.15 458.86, 953.07 461.87 C 952.99 464.87, 954.28 467.13, 955.31 471.37 C 956.34 475.61, 957.07 478.30, 958.23 483.06 C 959.39 487.82, 959.86 490.37, 961.11 495.17 C 962.37 499.97, 963.02 502.51, 964.52 507.08 C 966.01 511.64, 966.86 513.97, 968.58 518.01 C 970.31 522.05, 971.20 523.85, 973.14 527.30 C 975.08 530.74, 975.79 533.03, 978.27 535.22 C 980.75 537.42, 983.08 537.94, 985.55 538.27 C 988.02 538.61, 989.33 538.01, 990.63 536.90 C 991.92 535.79, 992.08 534.29, 992.03 532.73 C 991.98 531.18, 991.32 530.57, 990.37 529.10 C 989.42 527.64, 988.93 527.01, 987.28 525.42 C 985.64 523.82, 984.16 523.45, 982.17 521.14 C 980.18 518.83, 979.16 517.24, 977.34 513.84 C 975.52 510.44, 974.57 508.31, 973.08 504.15 C 971.59 499.99, 970.89 497.59, 969.88 493.04 C 968.87 488.49, 968.46 486.03, 968.01 481.39 C 967.57 476.75, 967.67 474.12, 967.66 469.85 C 967.65 465.58, 968.78 463.26, 967.94 460.05 C 967.10 456.84, 965.82 455.32, 963.46 453.78 C 961.10 452.25, 958.81 451.79, 956.14 452.37 C 953.47 452.94, 951.67 453.92, 950.12 456.65 C 948.56 459.38, 949.37 462.09, 948.36 466.03 C 947.34 469.97, 946.64 472.11, 945.05 476.35 C 943.47 480.59, 942.47 482.98, 940.45 487.24 C 938.43 491.51, 937.25 493.73, 934.95 497.67 C 932.66 501.60, 931.37 503.65, 928.98 506.93 C 926.58 510.20, 925.27 511.81, 923.00 514.04 C 920.73 516.28, 919.43 516.75, 917.64 518.09 C 915.86 519.44, 915.34 520.08, 914.09 520.77 C 912.84 521.47, 912.56 521.81, 911.40 521.58 C 910.24 521.36, 909.92 520.85, 908.30 519.66 C 906.67 518.47, 905.39 517.93, 903.27 515.64 C 901.16 513.34, 899.84 511.73, 897.73 508.20 C 895.62 504.67, 894.57 502.52, 892.74 497.99 C 890.90 493.45, 890.09 490.81, 888.56 485.51 C 887.04 480.21, 886.34 477.26, 885.12 471.49 C 883.90 465.73, 883.40 462.68, 882.48 456.69 C 881.56 450.69, 881.17 447.49, 880.52 441.51 C 879.87 435.54, 879.61 432.48, 879.24 426.81 C 878.87 421.13, 878.77 418.34, 878.67 413.14 C 878.57 407.93, 878.59 405.40, 878.75 400.79 C 878.92 396.17, 879.25 393.78, 879.51 390.07 C 879.76 386.36, 880.58 384.86, 880.01 382.24 C 879.45 379.62, 878.59 378.05, 876.68 376.96 C 874.77 375.87, 872.42 375.77, 870.45 376.80" style="stroke: black; fill: black;"/><path d="M 963.48,407.23 C 965.14 408.67, 966.32 409.48, 966.57 409.22 C 966.81 408.97, 966.03 407.71, 964.71 405.98 C 963.39 404.24, 961.58 402.03, 959.97 400.56 C 958.35 399.09, 956.96 398.32, 956.63 398.61 C 956.29 398.90, 956.92 400.31, 958.29 402.03 C 959.66 403.75, 961.83 405.79, 963.48 407.23" style="stroke: black; fill: black;"/><path d="M 1045.79,494.84 C 1047.30 496.34, 1048.77 496.75, 1051.26 496.66 C 1053.76 496.57, 1055.16 495.83, 1058.26 494.40 C 1061.36 492.98, 1063.24 491.58, 1066.75 489.52 C 1070.27 487.46, 1072.22 486.28, 1075.83 484.10 C 1079.44 481.92, 1081.38 480.81, 1084.80 478.61 C 1088.23 476.42, 1089.98 475.41, 1092.97 473.13 C 1095.95 470.85, 1097.69 469.95, 1099.72 467.22 C 1101.74 464.49, 1102.48 462.74, 1103.10 459.49 C 1103.71 456.25, 1103.74 454.22, 1102.78 450.99 C 1101.82 447.76, 1100.88 445.75, 1098.30 443.34 C 1095.71 440.94, 1093.69 440.03, 1089.88 438.99 C 1086.06 437.94, 1083.73 438.03, 1079.21 438.13 C 1074.69 438.22, 1072.22 438.55, 1067.28 439.45 C 1062.34 440.35, 1059.60 440.92, 1054.51 442.61 C 1049.42 444.29, 1046.68 445.41, 1041.83 447.88 C 1036.97 450.35, 1034.50 451.79, 1030.24 454.96 C 1025.98 458.13, 1023.79 459.85, 1020.51 463.72 C 1017.23 467.58, 1015.77 469.85, 1013.85 474.28 C 1011.94 478.71, 1011.15 481.11, 1010.94 485.86 C 1010.73 490.61, 1011.07 493.38, 1012.79 498.03 C 1014.51 502.69, 1016.01 505.06, 1019.54 509.13 C 1023.08 513.20, 1025.38 515.11, 1030.46 518.40 C 1035.54 521.68, 1038.60 523.14, 1044.92 525.53 C 1051.24 527.93, 1054.86 528.91, 1062.05 530.38 C 1069.24 531.85, 1073.22 532.36, 1080.86 532.88 C 1088.51 533.40, 1092.63 533.36, 1100.26 532.99 C 1107.90 532.61, 1111.86 532.19, 1119.05 531.00 C 1126.23 529.81, 1130.20 528.76, 1136.18 527.04 C 1142.16 525.32, 1144.99 524.36, 1148.96 522.39 C 1152.93 520.43, 1155.07 519.09, 1156.03 517.22 C 1156.99 515.36, 1155.77 513.33, 1153.78 513.06 C 1151.79 512.79, 1150.00 514.35, 1146.08 515.87 C 1142.17 517.39, 1139.82 518.78, 1134.21 520.64 C 1128.59 522.51, 1124.84 523.84, 1118.00 525.19 C 1111.15 526.53, 1107.32 526.96, 1099.98 527.35 C 1092.63 527.74, 1088.62 527.73, 1081.29 527.13 C 1073.97 526.54, 1070.13 525.96, 1063.35 524.39 C 1056.58 522.82, 1053.16 521.73, 1047.43 519.28 C 1041.70 516.84, 1038.99 515.27, 1034.70 512.17 C 1030.42 509.07, 1028.69 507.21, 1026.00 503.78 C 1023.31 500.34, 1022.45 498.52, 1021.27 495.02 C 1020.09 491.52, 1019.94 489.74, 1020.11 486.29 C 1020.27 482.84, 1020.70 481.19, 1022.10 477.77 C 1023.50 474.35, 1024.49 472.44, 1027.12 469.21 C 1029.74 465.98, 1031.53 464.38, 1035.21 461.61 C 1038.90 458.84, 1041.17 457.46, 1045.54 455.34 C 1049.91 453.22, 1052.45 452.25, 1057.05 451.00 C 1061.65 449.75, 1064.23 449.40, 1068.53 449.10 C 1072.82 448.79, 1075.09 448.91, 1078.52 449.48 C 1081.95 450.06, 1083.42 451.03, 1085.68 451.96 C 1087.94 452.88, 1088.58 453.49, 1089.83 454.10 C 1091.08 454.72, 1091.51 454.55, 1091.93 455.02 C 1092.34 455.49, 1092.38 455.63, 1091.89 456.46 C 1091.40 457.29, 1090.80 457.65, 1089.48 459.17 C 1088.17 460.70, 1087.46 462.02, 1085.31 464.08 C 1083.16 466.14, 1081.71 467.42, 1078.73 469.48 C 1075.75 471.55, 1073.89 472.64, 1070.42 474.42 C 1066.94 476.19, 1064.94 477.01, 1061.37 478.36 C 1057.80 479.71, 1055.57 479.99, 1052.57 481.19 C 1049.57 482.38, 1048.17 482.74, 1046.39 484.34 C 1044.61 485.94, 1043.81 487.09, 1043.69 489.19 C 1043.57 491.29, 1044.27 493.35, 1045.79 494.84" style="stroke: black; fill: black;"/><path d="M 1161.82,400.37 C 1159.95 401.35, 1159.16 402.70, 1158.52 405.06 C 1157.89 407.42, 1158.08 408.94, 1158.65 412.18 C 1159.23 415.43, 1160.33 417.47, 1161.40 421.29 C 1162.46 425.12, 1163.05 427.12, 1163.99 431.30 C 1164.93 435.48, 1165.35 437.69, 1166.10 442.21 C 1166.85 446.73, 1167.17 449.18, 1167.75 453.92 C 1168.32 458.65, 1168.59 461.17, 1168.98 465.90 C 1169.37 470.64, 1169.53 473.11, 1169.71 477.59 C 1169.89 482.07, 1170.01 484.38, 1169.89 488.30 C 1169.77 492.22, 1168.89 494.22, 1169.11 497.19 C 1169.32 500.16, 1169.57 501.48, 1170.98 503.15 C 1172.39 504.83, 1173.83 505.34, 1176.15 505.56 C 1178.48 505.79, 1180.44 505.48, 1182.59 504.27 C 1184.75 503.07, 1186.06 502.07, 1186.92 499.54 C 1187.78 497.02, 1186.49 495.01, 1186.90 491.65 C 1187.31 488.30, 1187.62 486.30, 1188.96 482.76 C 1190.29 479.23, 1191.23 477.41, 1193.58 473.98 C 1195.92 470.55, 1197.38 468.78, 1200.67 465.62 C 1203.97 462.46, 1205.96 460.85, 1210.06 458.17 C 1214.16 455.49, 1216.52 454.16, 1221.18 452.23 C 1225.85 450.30, 1228.48 449.49, 1233.39 448.52 C 1238.30 447.54, 1240.93 447.29, 1245.75 447.36 C 1250.57 447.43, 1253.07 447.75, 1257.48 448.86 C 1261.90 449.98, 1264.14 450.92, 1267.84 452.95 C 1271.53 454.98, 1273.25 456.31, 1275.97 459.01 C 1278.69 461.71, 1279.78 463.31, 1281.44 466.44 C 1283.09 469.57, 1283.65 471.33, 1284.26 474.68 C 1284.87 478.03, 1284.88 479.77, 1284.46 483.20 C 1284.05 486.63, 1283.61 488.46, 1282.20 491.82 C 1280.78 495.19, 1279.87 496.92, 1277.40 500.02 C 1274.93 503.13, 1273.38 504.66, 1269.85 507.34 C 1266.33 510.03, 1264.22 511.34, 1259.78 513.45 C 1255.35 515.56, 1252.78 516.48, 1247.67 517.87 C 1242.55 519.26, 1239.68 519.78, 1234.23 520.38 C 1228.78 520.99, 1225.75 521.06, 1220.41 520.91 C 1215.06 520.77, 1212.26 520.47, 1207.48 519.67 C 1202.70 518.87, 1200.23 518.26, 1196.48 516.91 C 1192.74 515.56, 1191.29 514.33, 1188.74 512.92 C 1186.20 511.52, 1185.64 510.65, 1183.75 509.88 C 1181.87 509.11, 1180.85 508.64, 1179.31 509.08 C 1177.77 509.51, 1176.46 510.37, 1176.06 512.05 C 1175.66 513.72, 1175.77 515.32, 1177.30 517.46 C 1178.82 519.59, 1180.33 521.10, 1183.68 522.73 C 1187.03 524.37, 1189.49 524.65, 1194.03 525.63 C 1198.57 526.62, 1201.14 527.07, 1206.39 527.64 C 1211.64 528.21, 1214.55 528.45, 1220.28 528.49 C 1226.01 528.53, 1229.18 528.47, 1235.04 527.83 C 1240.91 527.20, 1243.98 526.72, 1249.60 525.32 C 1255.22 523.93, 1258.06 523.05, 1263.13 520.86 C 1268.20 518.66, 1270.68 517.34, 1274.95 514.35 C 1279.22 511.36, 1281.28 509.65, 1284.49 505.92 C 1287.71 502.18, 1289.08 499.99, 1291.03 495.69 C 1292.97 491.38, 1293.66 488.96, 1294.22 484.38 C 1294.77 479.81, 1294.72 477.34, 1293.81 472.84 C 1292.90 468.33, 1291.99 465.94, 1289.65 461.88 C 1287.32 457.82, 1285.71 455.82, 1282.14 452.53 C 1278.57 449.23, 1276.35 447.73, 1271.80 445.42 C 1267.25 443.11, 1264.57 442.15, 1259.37 440.97 C 1254.18 439.78, 1251.32 439.52, 1245.82 439.49 C 1240.32 439.47, 1237.41 439.78, 1231.89 440.86 C 1226.37 441.94, 1223.46 442.82, 1218.22 444.89 C 1212.98 446.95, 1210.36 448.36, 1205.68 451.21 C 1201.00 454.06, 1198.75 455.75, 1194.81 459.14 C 1190.87 462.53, 1189.11 464.45, 1185.98 468.16 C 1182.86 471.87, 1181.63 473.93, 1179.18 477.71 C 1176.73 481.48, 1175.72 483.59, 1173.74 487.06 C 1171.76 490.53, 1169.80 492.18, 1169.29 495.07 C 1168.78 497.96, 1169.75 499.70, 1171.18 501.51 C 1172.60 503.32, 1174.48 503.96, 1176.41 504.11 C 1178.34 504.27, 1179.71 503.82, 1180.83 502.28 C 1181.96 500.75, 1182.16 499.37, 1182.04 496.44 C 1181.91 493.51, 1180.83 491.54, 1180.20 487.63 C 1179.58 483.73, 1179.38 481.41, 1178.90 476.91 C 1178.42 472.40, 1178.25 469.91, 1177.79 465.11 C 1177.33 460.32, 1177.09 457.76, 1176.60 452.93 C 1176.10 448.10, 1175.80 445.61, 1175.31 440.97 C 1174.83 436.33, 1174.55 434.06, 1174.18 429.73 C 1173.81 425.41, 1173.67 423.29, 1173.48 419.33 C 1173.28 415.37, 1173.61 413.05, 1173.20 409.94 C 1172.79 406.82, 1172.51 405.72, 1171.44 403.77 C 1170.38 401.82, 1169.80 400.85, 1167.87 400.17 C 1165.95 399.49, 1163.69 399.39, 1161.82 400.37" style="stroke: black; fill: black;"/><path d="M 1318.51,496.96 C 1320.03 498.46, 1321.52 499.03, 1324.23 498.82 C 1326.94 498.61, 1328.38 497.38, 1332.08 495.91 C 1335.78 494.44, 1338.29 493.29, 1342.73 491.45 C 1347.18 489.60, 1349.67 488.62, 1354.31 486.67 C 1358.95 484.73, 1361.47 483.68, 1365.93 481.72 C 1370.38 479.77, 1372.61 478.80, 1376.57 476.90 C 1380.53 474.99, 1382.59 474.35, 1385.73 472.18 C 1388.88 470.02, 1390.60 468.94, 1392.30 466.05 C 1394.01 463.16, 1394.44 461.09, 1394.27 457.72 C 1394.10 454.35, 1393.65 451.98, 1391.47 449.21 C 1389.30 446.44, 1387.24 445.16, 1383.39 443.88 C 1379.54 442.60, 1377.04 442.83, 1372.21 442.81 C 1367.37 442.79, 1364.74 443.07, 1359.23 443.79 C 1353.71 444.51, 1350.58 444.99, 1344.64 446.39 C 1338.71 447.78, 1335.46 448.67, 1329.56 450.76 C 1323.66 452.85, 1320.57 454.11, 1315.16 456.82 C 1309.75 459.53, 1306.97 460.95, 1302.51 464.30 C 1298.05 467.66, 1295.86 469.47, 1292.85 473.58 C 1289.84 477.70, 1288.51 480.17, 1287.47 484.89 C 1286.42 489.60, 1286.29 492.39, 1287.62 497.14 C 1288.96 501.90, 1290.43 504.40, 1294.14 508.64 C 1297.85 512.88, 1300.41 514.85, 1306.17 518.35 C 1311.93 521.84, 1315.44 523.33, 1322.94 526.12 C 1330.44 528.91, 1334.79 530.18, 1343.67 532.30 C 1352.56 534.43, 1357.65 535.27, 1367.36 536.74 C 1377.06 538.21, 1382.33 538.74, 1392.20 539.67 C 1402.07 540.59, 1407.32 540.87, 1416.71 541.37 C 1426.10 541.87, 1430.79 541.99, 1439.15 542.16 C 1447.50 542.33, 1451.86 542.31, 1458.47 542.23 C 1465.08 542.16, 1467.93 542.35, 1472.19 541.78 C 1476.46 541.21, 1478.41 540.69, 1479.80 539.39 C 1481.20 538.09, 1480.80 536.10, 1479.15 535.28 C 1477.51 534.46, 1475.77 535.08, 1471.59 535.30 C 1467.41 535.52, 1464.75 535.99, 1458.26 536.38 C 1451.78 536.77, 1447.43 537.16, 1439.16 537.27 C 1430.90 537.38, 1426.23 537.31, 1416.92 536.92 C 1407.61 536.53, 1402.39 536.25, 1392.62 535.31 C 1382.84 534.38, 1377.61 533.82, 1368.07 532.25 C 1358.52 530.68, 1353.50 529.75, 1344.90 527.46 C 1336.30 525.16, 1332.07 523.73, 1325.07 520.77 C 1318.06 517.80, 1314.83 516.07, 1309.86 512.63 C 1304.89 509.20, 1302.99 507.13, 1300.21 503.59 C 1297.44 500.04, 1296.83 498.27, 1295.98 494.90 C 1295.14 491.53, 1295.26 490.06, 1295.97 486.75 C 1296.68 483.43, 1297.30 481.61, 1299.54 478.32 C 1301.77 475.03, 1303.37 473.31, 1307.14 470.30 C 1310.92 467.29, 1313.46 465.80, 1318.42 463.26 C 1323.37 460.71, 1326.35 459.45, 1331.91 457.58 C 1337.47 455.71, 1340.62 454.92, 1346.21 453.91 C 1351.81 452.90, 1354.89 452.62, 1359.90 452.52 C 1364.91 452.43, 1367.43 452.67, 1371.25 453.43 C 1375.07 454.20, 1376.64 455.41, 1379.00 456.33 C 1381.35 457.24, 1381.96 457.65, 1383.04 458.00 C 1384.11 458.35, 1384.40 457.82, 1384.38 458.09 C 1384.35 458.37, 1383.97 458.36, 1382.90 459.38 C 1381.83 460.39, 1381.23 461.38, 1379.04 463.18 C 1376.85 464.99, 1375.31 466.31, 1371.94 468.39 C 1368.58 470.46, 1366.42 471.60, 1362.23 473.55 C 1358.04 475.50, 1355.58 476.51, 1351.01 478.13 C 1346.43 479.75, 1343.90 480.43, 1339.37 481.66 C 1334.84 482.90, 1332.18 483.37, 1328.36 484.31 C 1324.53 485.25, 1322.59 484.94, 1320.24 486.35 C 1317.89 487.75, 1316.97 489.22, 1316.62 491.35 C 1316.27 493.47, 1316.99 495.47, 1318.51 496.96" style="stroke: black; fill: black;"/></svg>